<svg xmlns="http://www.w3.org/2000/svg" viewBox="0 0 320 72" role="img" aria-label="Clinique">
  <defs>
    <linearGradient id="shield" x1="8" y1="6" x2="52" y2="42" gradientUnits="userSpaceOnUse">
      <stop stop-color="#6366f1"/>
      <stop offset="1" stop-color="#8b5cf6"/>
    </linearGradient>
    <linearGradient id="wordmark" x1="72" y1="20" x2="280" y2="52" gradientUnits="userSpaceOnUse">
      <stop stop-color="#a5b4fc"/>
      <stop offset="1" stop-color="#c084fc"/>
    </linearGradient>
  </defs>
  <rect width="320" height="72" rx="12" fill="#0b0f19"/>
  <g transform="translate(4 12)">
    <path
      fill="none"
      stroke="url(#shield)"
      stroke-width="2.5"
      stroke-linejoin="round"
      d="M24 4 L40 12 V26 C40 34.5 33 40.5 24 44 C15 40.5 8 34.5 8 26 V12 Z"
    />
    <polyline
      fill="none"
      stroke="#6366f1"
      stroke-width="2.25"
      stroke-linecap="round"
      stroke-linejoin="round"
      points="14,30 20,26 26,28 34,18"
    />
    <circle cx="34" cy="18" r="2.75" fill="#06b6d4"/>
  </g>
  <path
    fill="url(#wordmark)"
    d="M88.98 33.58L93.47 35Q92.44 38.75 90.04 40.57Q87.64 42.39 83.95 42.39Q79.39 42.39 76.45 39.27Q73.52 36.16 73.52 30.75Q73.52 25.03 76.47 21.87Q79.42 18.70 84.23 18.70Q88.44 18.70 91.06 21.19Q92.63 22.66 93.41 25.41L88.83 26.50Q88.42 24.72 87.13 23.69Q85.84 22.66 84 22.66Q81.45 22.66 79.87 24.48Q78.28 26.31 78.28 30.41Q78.28 34.75 79.84 36.59Q81.41 38.44 83.91 38.44Q85.75 38.44 87.08 37.27Q88.41 36.09 88.98 33.58M101.80 42L97.41 42L97.41 19.09L101.80 19.09L101.80 42M110.69 23.16L106.30 23.16L106.30 19.09L110.69 19.09L110.69 23.16M110.69 42L106.30 42L106.30 25.41L110.69 25.41L110.69 42M130.28 31.69L130.28 42L125.89 42L125.89 33.53Q125.89 30.84 125.61 30.05Q125.33 29.27 124.70 28.83Q124.06 28.39 123.17 28.39Q122.03 28.39 121.13 29.02Q120.22 29.64 119.88 30.67Q119.55 31.70 119.55 34.48L119.55 42L115.16 42L115.16 25.41L119.23 25.41L119.23 27.84Q121.41 25.03 124.70 25.03Q126.16 25.03 127.36 25.55Q128.56 26.08 129.18 26.89Q129.80 27.70 130.04 28.73Q130.28 29.77 130.28 31.69M139.13 23.16L134.73 23.16L134.73 19.09L139.13 19.09L139.13 23.16M139.13 42L134.73 42L134.73 25.41L139.13 25.41L139.13 42M158.86 48.31L154.47 48.31L154.47 39.97Q153.61 41.08 152.33 41.73Q151.05 42.38 149.56 42.38Q146.73 42.38 144.91 40.25Q142.75 37.77 142.75 33.52Q142.75 29.52 144.77 27.27Q146.80 25.03 149.80 25.03Q151.45 25.03 152.66 25.73Q153.88 26.44 154.81 27.86L154.81 25.41L158.86 25.41L158.86 48.31M154.61 33.50Q154.61 30.95 153.57 29.71Q152.53 28.47 150.97 28.47Q149.38 28.47 148.30 29.73Q147.23 31 147.23 33.75Q147.23 36.48 148.27 37.70Q149.30 38.91 150.81 38.91Q152.33 38.91 153.47 37.55Q154.61 36.19 154.61 33.50M178.17 42L174.09 42L174.09 39.52Q173.19 40.84 171.71 41.61Q170.23 42.38 168.59 42.38Q166.92 42.38 165.59 41.64Q164.27 40.91 163.67 39.58Q163.08 38.25 163.08 35.91L163.08 25.41L167.47 25.41L167.47 33.03Q167.47 36.53 167.71 37.32Q167.95 38.11 168.59 38.57Q169.23 39.03 170.22 39.03Q171.34 39.03 172.23 38.41Q173.13 37.80 173.45 36.88Q173.78 35.97 173.78 32.41L173.78 25.41L178.17 25.41L178.17 42M192.33 36.72L196.70 37.45Q195.86 39.86 194.04 41.12Q192.22 42.38 189.48 42.38Q185.16 42.38 183.08 39.55Q181.44 37.28 181.44 33.83Q181.44 29.70 183.59 27.37Q185.75 25.03 189.05 25.03Q192.75 25.03 194.89 27.48Q197.03 29.92 196.94 34.97L185.94 34.97Q185.98 36.92 187 38.01Q188.02 39.09 189.53 39.09Q190.56 39.09 191.27 38.53Q191.97 37.97 192.33 36.72M186.02 32.28L192.58 32.28Q192.53 30.38 191.59 29.38Q190.66 28.39 189.31 28.39Q187.88 28.39 186.94 29.44Q186 30.48 186.02 32.28"
  />
</svg>
